<?xml version="1.0" encoding="UTF-8" standalone="no"?>
<svg
   xmlns:dc="http://purl.org/dc/elements/1.1/"
   xmlns:cc="http://creativecommons.org/ns#"
   xmlns:rdf="http://www.w3.org/1999/02/22-rdf-syntax-ns#"
   xmlns:svg="http://www.w3.org/2000/svg"
   xmlns="http://www.w3.org/2000/svg"
   xmlns:sodipodi="http://sodipodi.sourceforge.net/DTD/sodipodi-0.dtd"
   xmlns:inkscape="http://www.inkscape.org/namespaces/inkscape"
   width="1792"
   height="1792"
   viewBox="0 0 1792 1792"
   version="1.1"
   id="svg4584"
   sodipodi:docname="bell-o.svg"
   inkscape:export-filename="/home/matthijsln/Documents/bell-svg-gray.png"
   inkscape:export-xdpi="2.7857144"
   inkscape:export-ydpi="2.7857144"
   inkscape:version="0.92.3 (d244b95, 2018-08-02)">
  <metadata
     id="metadata4590">
    <rdf:RDF>
      <cc:Work
         rdf:about="">
        <dc:format>image/svg+xml</dc:format>
        <dc:type
           rdf:resource="http://purl.org/dc/dcmitype/StillImage" />
        <dc:title></dc:title>
      </cc:Work>
    </rdf:RDF>
  </metadata>
  <defs
     id="defs4588" />
  <sodipodi:namedview
     pagecolor="#ffffff"
     bordercolor="#666666"
     borderopacity="1"
     objecttolerance="10"
     gridtolerance="10"
     guidetolerance="10"
     inkscape:pageopacity="0"
     inkscape:pageshadow="2"
     inkscape:window-width="1871"
     inkscape:window-height="1176"
     id="namedview4586"
     showgrid="false"
     inkscape:zoom="0.56752232"
     inkscape:cx="896"
     inkscape:cy="896"
     inkscape:window-x="49"
     inkscape:window-y="24"
     inkscape:window-maximized="1"
     inkscape:current-layer="svg4584" />
  <path
     style="fill:#7a7a7a;stroke:#000000;stroke-width:1px;stroke-linecap:butt;stroke-linejoin:miter;stroke-opacity:1;fill-opacity:1"
     d="m 177.96657,1458.9735 c 0.58735,-2.9368 1.1747,-5.8735 1.76204,-8.8103 0,-1.762 -0.21855,-3.5377 0,-5.2861 0.74295,-5.9436 2.3494,-11.747 3.52409,-17.6205 1.39656,-6.9827 4.55977,-24.2515 7.04818,-31.7168 7.29147,-21.8744 -0.28502,11.7124 7.04819,-17.6204 2.03961,-8.1585 2.93146,-16.5955 5.28613,-24.6687 1.77126,-6.0729 5.41823,-11.5081 7.04818,-17.6204 3.0867,-11.5751 3.70815,-23.7364 7.04818,-35.2409 1.97871,-6.8156 6.0146,-12.8594 8.81023,-19.3825 2.49191,-5.8145 4.85109,-11.6883 7.04818,-17.6205 3.67756,-9.9294 7.1205,-19.9446 10.57227,-29.9547 2.42193,-7.0236 4.3662,-14.2161 7.04818,-21.1446 21.09155,-54.4865 6.60003,-13.9765 22.90659,-52.8613 19.54041,-46.5964 8.20186,-20.6489 21.14454,-54.6234 2.25201,-5.9115 5.17318,-11.5788 7.04818,-17.6205 3.42032,-11.021 5.1611,-22.5315 8.81023,-33.4789 2.24426,-6.7327 6.21521,-12.7769 8.81023,-19.3824 5.70645,-14.5256 9.60313,-29.7534 15.8584,-44.05118 2.10567,-4.81294 5.45533,-9.09026 7.04818,-14.09636 2.54981,-8.01368 3.24653,-16.51017 5.28614,-24.66864 0.90095,-3.6038 2.40547,-7.02998 3.52409,-10.57227 2.40568,-7.61798 5.01509,-15.18082 7.04818,-22.90658 0.90923,-3.45507 1.1747,-7.04819 1.76205,-10.57228 1.17469,-5.87348 1.98074,-11.83289 3.52409,-17.62045 0.81498,-3.05617 2.61522,-5.78065 3.52409,-8.81022 0.86058,-2.8686 1.26968,-5.85608 1.76204,-8.81023 0.0966,-0.57936 -0.26267,-1.23671 0,-1.76205 1.53162,-3.06323 4.08361,-5.60348 5.28614,-8.81022 0.61869,-1.64986 -0.34557,-3.55831 0,-5.28614 0.25757,-1.28784 1.24469,-2.31693 1.76204,-3.52409 1.24596,-2.90722 2.10957,-5.98118 3.52409,-8.81022 0.94708,-1.89415 2.57702,-3.392 3.5241,-5.28614 1.41452,-2.82904 2.27813,-5.903 3.52409,-8.81023 2.06941,-4.82864 4.4969,-9.50406 7.04818,-14.09636 1.02845,-1.85121 2.57702,-3.39199 3.52409,-5.28613 0.83063,-1.66128 1.0077,-3.58886 1.76204,-5.28614 1.60021,-3.60047 3.68593,-6.9718 5.28614,-10.57227 0.75434,-1.69728 0.93141,-3.62486 1.76204,-5.28614 2.11772,-4.23543 4.93047,-8.09888 7.04818,-12.33431 0.83064,-1.66128 0.80645,-3.69347 1.76205,-5.28614 0.85472,-1.42453 2.78115,-2.0382 3.52409,-3.52409 5.28614,-10.57227 1.76204,-7.9292 5.28614,-15.85841 1.76204,-3.52409 3.52409,-7.04818 5.28613,-10.57227 0.58735,-2.34939 0.86265,-4.79969 1.76205,-7.04818 1.4633,-3.65825 3.82283,-6.91402 5.28613,-10.57227 1.7988,-4.49698 1.99248,-9.50151 3.52409,-14.09636 1.58693,-4.76079 3.5983,-9.37041 5.28614,-14.09636 1.24939,-3.49831 2.06079,-7.15791 3.52409,-10.57228 0.3272,-0.76347 1.59914,-0.94753 1.76204,-1.76204 0.46076,-2.30377 -0.46075,-4.74441 0,-7.04818 0.16291,-0.81451 1.45356,-0.99082 1.76205,-1.76205 8.94154,-22.35384 -4.16468,5.60616 3.52409,-12.33431 1.03471,-2.41432 2.80248,-4.52255 3.52409,-7.04818 0.48407,-1.69425 -0.48407,-3.59189 0,-5.28614 0.72161,-2.52564 2.69345,-4.55627 3.52409,-7.04818 0.37147,-1.11442 -0.23038,-2.37221 0,-3.52409 0.36426,-1.82129 1.1747,-3.52409 1.76205,-5.28614 0.58734,-1.76204 1.17469,-3.52409 1.76204,-5.28613 1.1747,-3.52409 2.14448,-7.12325 3.52409,-10.57227 1.94433,-4.86082 5.10386,-9.23555 7.04818,-14.09637 0.21814,-0.54534 0,-1.17469 0,-1.76204 0.58735,-2.34939 0.86265,-4.79969 1.76205,-7.04818 0.30849,-0.77123 1.33468,-1.04978 1.76204,-1.76205 1.35143,-2.25238 2.3494,-4.69878 3.52409,-7.04818 0.58735,-1.17469 1.1747,-2.34939 1.76205,-3.52409 0,-1.1747 -0.37147,-2.40967 0,-3.52409 1.23343,-3.70029 4.0527,-6.87198 5.28613,-10.57227 3.30237,-2.61604 0.95225,-9.09513 1.76205,-12.33432 0.20146,-0.80583 1.45355,-0.99082 1.76204,-1.76204 0.8994,-2.24849 0.99624,-4.75076 1.76205,-7.04818 0.41532,-1.24596 1.54613,-2.22861 1.76205,-3.52409 0.38623,-2.31743 -0.38624,-4.73076 0,-7.04818 0.21591,-1.29549 1.5763,-2.22394 1.76204,-3.52409 0,-23.87717 -1.31335,-0.0327 1.76205,-12.33432 0.2849,-1.13962 0,-2.3494 0,-3.52409 0,-3.52409 0,-7.04818 0,-10.57227 0,-9.39758 0,-18.79515 0,-28.19273 0,-1.18496 -0.26306,-11.28209 0,-12.33431 0.20145,-0.80584 1.49937,-0.97404 1.76204,-1.76205 0.37147,-1.11441 0,-2.34939 0,-3.52409 0,-1.76204 0,-3.52409 0,-5.28614 0,-1.17469 -0.23038,-2.3722 0,-3.52409 0.36426,-1.82129 1.39779,-3.46484 1.76205,-5.28613 0.34556,-1.72783 -0.34557,-3.55831 0,-5.28614 0.47493,-2.37467 1.36392,-4.65943 1.76204,-7.04818 0.19312,-1.15871 -0.23038,-2.3722 0,-3.52409 0.36426,-1.82129 1.39779,-3.46484 1.76205,-5.28613 0.23037,-1.15189 -0.28491,-2.38447 0,-3.52409 0.63707,-2.54828 2.69345,-4.55628 3.52409,-7.04819 0.18573,-0.5572 -0.18574,-1.20483 0,-1.76204 0.41532,-1.24595 1.34672,-2.27814 1.76204,-3.52409 1.74844,-5.24531 -4.17229,3.61537 1.76205,-5.28614 2.68806,-4.03209 1.39478,1.10179 3.52409,-5.28613 0.18573,-0.55721 -0.26267,-1.23671 0,-1.76205 0.37147,-0.74294 1.49937,-0.97403 1.76204,-1.76204 0.37147,-1.11442 -0.37147,-2.40968 0,-3.52409 0.26267,-0.78801 1.30129,-1.07092 1.76205,-1.76205 6.38792,-12.77585 -1.85736,2.78604 3.52409,-5.28613 0.72851,-1.09278 1.34673,-2.27814 1.76204,-3.52409 0.18574,-0.55721 -0.3258,-1.27335 0,-1.76205 0.92151,-1.38226 2.3494,-2.34939 3.52409,-3.52409 1.76205,-1.76205 3.5241,-3.52409 5.28614,-5.28614 0.58735,-0.58734 1.09754,-1.26366 1.76205,-1.76204 17.47327,-13.10496 -3.48844,2.91297 8.81022,-5.28614 0.69113,-0.46075 1.09754,-1.26366 1.76205,-1.76204 1.69417,-1.27063 3.59196,-2.25346 5.28613,-3.52409 0.66451,-0.49838 1.1747,-1.1747 1.76205,-1.76205 1.76204,-1.17469 3.59196,-2.25346 5.28613,-3.52409 1.99353,-1.49514 3.34029,-3.72945 5.28614,-5.28613 1.76204,-1.1747 3.52409,-2.3494 5.28613,-3.52409 0.58735,0 1.23671,0.26267 1.76205,0 1.89414,-0.94708 3.59196,-2.25347 5.28614,-3.5241 7.64999,-5.73749 -10.12272,5.01641 7.04818,-5.28613 1.12619,-0.67571 2.49853,-0.9416 3.52409,-1.76205 1.94585,-1.55668 3.34028,-3.72945 5.28613,-5.28613 1.02556,-0.82045 2.3494,-1.1747 3.52409,-1.76205 1.76205,-1.17469 3.63248,-2.20116 5.28614,-3.52409 1.29723,-1.03779 2.14183,-2.60258 3.52409,-3.52409 2.18555,-1.45703 4.86263,-2.06706 7.04818,-3.52409 1.38226,-0.92151 2.19507,-2.52733 3.52409,-3.52409 1.05068,-0.78801 2.34939,-1.1747 3.52409,-1.76204 5.87349,-2.93675 11.74697,-5.87349 17.62045,-8.81023 4.09956,-2.04978 4.55762,-2.09668 8.81023,-5.28614 0.66451,-0.49838 0.97403,-1.49937 1.76205,-1.76204 1.11441,-0.37147 2.43341,0.43627 3.52409,0 1.96624,-0.7865 3.47021,-2.43454 5.28613,-3.52409 7.69814,-4.61889 -1.27547,1.51876 8.81023,-3.52409 0.74294,-0.37147 1.17469,-1.1747 1.76204,-1.76205 1.76205,-1.17469 3.31989,-2.73759 5.28614,-3.52409 1.09068,-0.43627 2.40967,0.37147 3.52409,0 0.78801,-0.26267 1.0191,-1.39057 1.76204,-1.76204 10.0857,-5.04285 1.11209,1.09479 8.81023,-3.52409 1.35349,-0.81209 6.50863,-4.71074 8.81023,-5.28614 1.13962,-0.28491 2.43341,0.43627 3.52409,0 1.96625,-0.7865 3.47021,-2.43453 5.28613,-3.52409 1.12619,-0.67571 2.3979,-1.08633 3.52409,-1.76204 1.81593,-1.08956 3.47021,-2.43454 5.28614,-3.5241 4.13231,-2.47938 3.76738,-1.50695 8.81022,-3.52409 2.43884,-0.97553 4.76757,-2.22088 7.04819,-3.52409 2.97356,-1.69917 5.83666,-3.58696 8.81022,-5.28613 1.14031,-0.65161 2.43132,-1.03353 3.52409,-1.76205 0.69113,-0.46075 0.99082,-1.45355 1.76205,-1.76204 2.24849,-0.8994 4.79969,-0.86265 7.04818,-1.76205 0.77122,-0.30849 0.99082,-1.45355 1.76204,-1.76204 2.2485,-0.8994 4.79969,-0.86265 7.04818,-1.76205 0.77123,-0.30849 1.1747,-1.17469 1.76205,-1.76204 2.34939,-0.58735 4.75075,-0.99624 7.04818,-1.76205 4.80007,-1.60002 9.27886,-5.67175 14.09636,-7.04818 1.69425,-0.48407 3.59189,0.48407 5.28614,0 2.52564,-0.72161 4.60935,-2.54856 7.04818,-3.52409 0.54534,-0.21814 1.21671,0.21814 1.76204,0 2.43884,-0.97553 4.55628,-2.69345 7.04819,-3.52409 1.11441,-0.37147 2.38446,0.28491 3.52409,0 1.27413,-0.31853 2.23624,-1.50448 3.52409,-1.76205 1.72782,-0.34556 3.5767,0.42736 5.28613,0 0.80584,-0.20145 0.99082,-1.45355 1.76205,-1.76204 2.24849,-0.8994 4.75075,-0.99624 7.04818,-1.76205 9.12354,-3.04118 -4.08096,-1.08188 10.57227,-3.52409 2.31743,-0.38623 4.7224,0.33226 7.04818,0 2.9648,-0.42354 5.90475,-1.03567 8.81023,-1.76204 1.8019,-0.45048 3.43799,-1.57723 5.28613,-1.76205 4.09104,-0.4091 8.22288,0 12.33432,0 1.76204,0 3.5418,0.24919 5.28613,0 2.39736,-0.34248 4.63643,-1.54279 7.04819,-1.76204 6.42177,-0.93895 12.94398,0.53654 19.38249,0 4.719,-0.39325 9.38046,-1.33333 14.09636,-1.76205 1.75481,-0.15953 3.53284,0.17533 5.28614,0 4.13257,-0.41325 8.20175,-1.34879 12.33432,-1.76204 1.7533,-0.17533 3.52409,0 5.28613,0 2.3494,0 4.71045,-0.23378 7.04818,0 20.80894,2.08089 2.81358,0.62524 15.85841,3.52409 3.48763,0.77503 7.06895,1.06138 10.57227,1.76204 2.37467,0.47494 4.67351,1.28711 7.04818,1.76205 3.50332,0.70066 7.06895,1.06138 10.57227,1.76204 4.40474,0.12603 8.16018,2.59651 12.33433,3.52409 3.4876,0.77503 7.1062,0.89554 10.5723,1.76205 1.2741,0.31853 2.2943,1.3009 3.5241,1.76204 3.4782,1.30433 6.9684,2.62314 10.5722,3.52409 1.1396,0.28491 2.3845,-0.2849 3.5241,0 3.5241,1.1747 7.0482,2.3494 10.5723,3.5241 1.1747,0 2.3845,-0.28491 3.5241,0 1.2741,0.31853 2.3169,1.24469 3.5241,1.76204 2.9072,1.24595 5.7689,2.65516 8.8102,3.52409 1.1295,0.32271 2.4334,-0.43627 3.5241,0 1.9662,0.7865 3.5919,2.25346 5.2861,3.52409 0.6645,0.49838 0.9908,1.45356 1.7621,1.76205 2.2485,0.89939 4.7997,0.86265 7.0481,1.76204 0.7713,0.30849 1.1747,1.1747 1.7621,1.76205 1.1747,0.58735 2.3047,1.27428 3.5241,1.76204 2.2884,3.89219 6.0295,0.64977 8.8102,1.76205 4.351,1.74039 5.5772,4.46176 8.8102,7.04818 2.2932,1.83457 4.6047,3.65712 7.0482,5.28613 1.0928,0.72852 2.4313,1.03353 3.5241,1.76205 2.4435,1.62901 4.6585,3.57919 7.0482,5.28614 1.7232,1.23089 3.6924,2.12956 5.2861,3.52409 3.1256,2.73488 5.8735,5.87348 8.8102,8.81022 1.1747,1.1747 2.2269,2.4863 3.5241,3.52409 1.6537,1.32293 3.5241,2.3494 5.2862,3.52409 2.9367,2.93674 5.6846,6.07534 8.8102,8.81023 1.5937,1.39452 3.5629,2.29319 5.2861,3.52409 2.3898,1.70695 4.6047,3.65712 7.0482,5.28613 1.0928,0.72852 2.5152,0.92126 3.5241,1.76205 2.5525,2.12704 4.4957,4.92114 7.0482,7.04818 1.0089,0.84079 2.5954,0.83337 3.5241,1.76205 1.4974,1.49745 2.0266,3.78868 3.5241,5.28613 2.0766,2.07659 4.7549,3.45157 7.0482,5.28614 2.5944,2.07557 4.4537,4.9726 7.0481,7.04818 1.0256,0.82044 2.5954,0.83336 3.5241,1.76204 2.0766,2.07659 2.6595,5.73483 5.2862,7.04818 1.6612,0.83064 3.8357,0.60177 5.2861,1.76205 1.6537,1.32293 2.0266,3.78869 3.5241,5.28614 0.9287,0.92868 2.4985,0.9416 3.5241,1.76204 8.3375,6.67001 3.0529,2.8174 7.0482,8.81023 0.4607,0.69113 1.1747,1.17469 1.762,1.76204 2.3494,2.3494 4.9726,4.45371 7.0482,7.04818 1.8345,2.29321 3.4515,4.75497 5.2861,7.04818 6.5865,8.23317 -8.4516,-14.43947 7.0482,8.81023 0.7285,1.09277 1.0335,2.43132 1.762,3.52409 0.4608,0.69113 1.2637,1.09754 1.7621,1.76205 1.2706,1.69417 2.3494,3.52409 3.5241,5.28613 1.1747,1.76205 2.4734,3.44745 3.5241,5.28614 1.3032,2.28061 2.3494,4.69878 3.5241,7.04818 0.5873,1.1747 0.9986,2.45537 1.762,3.52409 2.186,3.06034 4.6006,5.95476 7.0482,8.81022 1.0811,1.26134 2.6694,2.09957 3.5241,3.5241 0.9556,1.59267 0.8405,3.67349 1.762,5.28613 1.4571,2.54981 3.5792,4.65846 5.2862,7.04818 1.2309,1.72326 2.1683,3.65926 3.524,5.28614 1.5953,1.91433 3.7295,3.34028 5.2862,5.28613 0.8204,1.02556 1.0335,2.43132 1.762,3.52409 1.629,2.44352 3.4516,4.75497 5.2862,7.04818 4.1767,5.22088 -0.7832,-3.91565 7.0481,7.04819 1.5268,2.13743 2.0671,4.86263 3.5241,7.04818 0.9215,1.38226 2.5585,2.17225 3.5241,3.52409 4.2227,3.03317 4.4215,8.39426 7.0482,12.33431 1.629,2.44352 3.4061,4.79212 5.2861,7.04818 1.0636,1.27623 2.6694,2.09957 3.5241,3.5241 0.9556,1.59267 0.9314,3.62486 1.7621,5.28613 0.947,1.89414 2.4345,3.47021 3.5241,5.28614 0.6757,1.12619 1.0863,2.3979 1.762,3.52409 1.0896,1.81592 2.4345,3.47021 3.5241,5.28613 1.3514,2.25238 2.1727,4.79581 3.5241,7.04818 0.2641,3.59674 5.3069,6.1983 7.0482,8.81023 1.1747,2.34939 2.3494,4.69879 3.5241,7.04818 0,0.58735 -0.1858,1.20484 0,1.76205 1.0002,3.00065 2.2781,5.903 3.5241,8.81022 0.5173,1.20716 1.0335,2.43132 1.762,3.52409 3.6003,5.40051 1.4509,-4.61325 5.2861,8.81023 0.4841,1.69425 -0.484,3.59189 0,5.28613 0.7216,2.52564 2.6935,4.55628 3.5241,7.04819 0.3715,1.11441 -0.2303,2.3722 0,3.52409 3.1965,15.98258 0.6119,-9.20134 3.5241,14.09636 0.2186,1.74844 -0.2185,3.53769 0,5.28613 1.0258,8.20643 2.0151,8.31317 3.5241,15.85841 0.7007,3.50332 1.3675,7.02142 1.7621,10.57227 0.1945,1.75127 -0.3456,3.55831 0,5.28614 0.2575,1.28784 1.5991,2.22088 1.762,3.52409 1.3113,5.20449 -0.6557,10.61309 0,15.85841 0.3715,2.97177 1.3906,5.83845 1.762,8.81022 0.2186,1.74844 0,3.52409 0,5.28614 0,2.93674 0,5.87348 0,8.81022 0,1.1747 -0.2303,2.37221 0,3.52409 0.3643,1.82129 1.4994,3.44745 1.7621,5.28614 0.4984,3.48867 0,7.04818 0,10.57227 0,7.63553 0,15.27106 0,22.90659 0,2.93674 -0.4828,5.91344 0,8.81022 0.2159,1.29549 1.3467,2.27814 1.762,3.5241 4.5996,13.79881 0.5239,1.90474 1.7621,10.57227 0.4235,2.9648 1.3385,5.84542 1.762,8.81022 0.4112,2.87801 -0.4111,5.93222 0,8.81023 0.3425,2.39736 1.3639,4.65943 1.7621,7.04818 0.1931,1.15871 0,2.34939 0,3.52409 0,2.93674 0,5.87348 0,8.81023 0,1.17469 -0.2849,2.38446 0,3.52409 0.3185,1.27413 1.1747,2.34939 1.762,3.52409 0.5874,2.93674 1.3385,5.84542 1.7621,8.81022 0.1661,1.16289 -0.1662,2.3612 0,3.52409 0.4235,2.9648 1.3905,5.83846 1.762,8.81023 0.2186,1.74844 -0.3456,3.55831 0,5.28614 0.2576,1.28784 1.5045,2.23624 1.7621,3.52409 0.3455,1.72782 -0.3456,3.5583 0,5.28613 0.2575,1.28785 1.4435,2.24995 1.762,3.52409 5.5164,22.06552 0.053,2.18835 1.762,15.85841 -0.9581,5.23005 2.7279,9.31886 3.5241,14.09636 0.2897,1.73807 -0.2185,3.5377 0,5.28614 1.0258,8.20642 2.0151,8.31316 3.5241,15.8584 7.3552,36.77586 -0.8536,-5.06674 1.7621,15.85841 0.3714,2.97178 1.0356,5.90475 1.762,8.81023 0.4505,1.8019 1.5317,3.44312 1.7621,5.28613 0.3642,2.91407 -0.3643,5.89617 0,8.81023 0.2303,1.84302 1.3977,3.46484 1.762,5.28613 0.2304,1.15189 -0.1661,2.3612 0,3.5241 0.4235,2.9648 1.3906,5.83845 1.762,8.81022 0.2186,1.74844 -0.1945,3.53487 0,5.28614 0.3946,3.55085 1.319,7.02716 1.7621,10.57227 0.1457,1.16562 -0.2304,2.3722 0,3.52409 0.3643,1.82129 1.5569,3.44014 1.762,5.28613 0.3892,3.50254 -0.3891,7.06974 0,10.57228 0.2052,1.84599 1.5317,3.44312 1.7621,5.28613 0,27.68522 -0.9287,-4.73871 1.762,14.09636 0.4529,3.17004 0,10.31871 0,14.09637 0,1.76204 -0.3455,3.5583 0,5.28614 0.2576,1.2878 1.5045,2.2362 1.7621,3.5241 0.3455,1.7278 0,3.5241 0,5.2861 0,0.5874 -0.1425,1.1923 0,1.7621 0.4505,1.8019 1.4994,3.4474 1.762,5.2861 0.3323,2.3258 0,4.6988 0,7.0482 0,5.3467 -0.2304,5.3608 1.7621,12.3343 3.6494,12.773 -0.04,-10.8102 3.5241,10.5723 1.2732,7.6395 -2.9098,-1.1074 1.762,10.5722 0.3085,0.7713 1.4994,0.9741 1.762,1.7621 0.3715,1.1144 -0.2303,2.3722 0,3.5241 1.1688,5.8439 1.6446,4.1114 3.5241,8.8102 0.6898,1.7245 1.3116,3.4842 1.7621,5.2861 0.1424,0.5698 -0.2182,1.2167 0,1.7621 0.9755,2.4388 2.6934,4.5563 3.5241,7.0482 0.3714,1.1144 -0.3715,2.4096 0,3.5241 0.2626,0.788 1.4535,0.9908 1.762,1.762 0.8994,2.2485 0.8627,4.7997 1.7621,7.0482 0.3085,0.7712 1.4535,0.9908 1.762,1.762 0.8994,2.2485 0.8627,4.7997 1.7621,7.0482 0.3084,0.7712 1.1747,1.1747 1.762,1.7621 0.5873,1.1746 1.3467,2.2781 1.762,3.524 0.5874,2.3494 1.1747,4.6988 1.7621,7.0482 0.5873,0.5874 1.3906,1.0191 1.762,1.7621 4.2587,8.5172 0.418,2.09 1.7621,8.8102 0.3642,1.8213 1.0722,3.5616 1.762,5.2861 4.257,10.6424 -0.5096,-1.4367 3.5241,5.2862 1.1747,2.3494 2.3494,4.6988 3.5241,7.0481 0,0.5874 -0.2627,1.2368 0,1.7621 0.9471,1.8941 2.577,3.392 3.5241,5.2861 0.8306,1.6613 1.0722,3.5616 1.762,5.2862 0.9756,2.4388 2.8871,4.4999 3.5241,7.0481 0.2849,1.1397 -0.4362,2.4335 0,3.5241 0.7865,1.9663 2.7376,3.3199 3.5241,5.2862 0.4363,1.0906 -0.4362,2.4334 0,3.5241 0.7865,1.9662 2.577,3.392 3.5241,5.2861 0.2627,0.5253 -0.1857,1.2048 0,1.762 0.4153,1.246 1.2743,2.3047 1.7621,3.5241 4.3547,10.8868 -0.6083,0.5456 3.524,8.8103 0.5874,1.1747 1.0336,2.4313 1.7621,3.524 2.1494,3.2241 2.2465,0.1758 3.5241,5.2862 0.2849,1.1396 -0.5254,2.4734 0,3.5241 0.2627,0.5253 1.3467,-0.4153 1.762,0 1.8574,1.8573 1.9481,4.9468 3.5241,7.0482 0.9968,1.329 2.3494,2.3493 3.5241,3.524 0.5874,0.5874 1.3906,1.0191 1.7621,1.7621 0.8306,1.6613 0.9314,3.6249 1.762,5.2861 0.3715,0.743 1.3013,1.0709 1.762,1.7621 2.1856,3.2783 3.259,7.1937 5.2862,10.5722 0.4273,0.7123 1.2636,1.0976 1.762,1.7621 1.2707,1.6942 2.4346,3.4702 3.5241,5.2861 0.6757,1.1262 0.9741,2.4734 1.7621,3.5241 0.9967,1.329 2.5273,2.1951 3.5241,3.5241 0.788,1.0507 1.0335,2.4313 1.762,3.5241 0.4608,0.6911 1.2637,1.0975 1.762,1.762 1.2707,1.6942 2.2535,3.592 3.5241,5.2862 0.4984,0.6645 1.3013,1.0709 1.7621,1.762 1.8997,2.8496 3.3864,5.9606 5.2861,8.8102 0.4608,0.6912 1.3906,1.0191 1.7621,1.7621 0.8306,1.6613 0.8405,3.6735 1.762,5.2861 1.457,2.5498 3.6571,4.6047 5.2861,7.0482 0.7286,1.0928 0.9213,2.5152 1.7621,3.5241 2.127,2.5524 4.6988,4.6988 7.0482,7.0482 0.5873,0.5873 1.3347,1.0498 1.762,1.762 1.3514,2.2524 2.3494,4.6988 3.5241,7.0482 0.5874,1.1747 0.974,2.4734 1.762,3.5241 0.9968,1.329 2.5274,2.1951 3.5241,3.5241 0.788,1.0507 1.0336,2.4313 1.7621,3.5241 4.956,7.434 -3.024,-9.5721 5.2861,7.0482 0.2627,0.5253 0,1.1747 0,1.762 0.5874,1.1747 1.0335,2.4313 1.7621,3.5241 0.9215,1.3823 2.5273,2.1951 3.5241,3.5241 1.2706,1.6942 2.2534,3.5919 3.524,5.2861 0.4984,0.6645 1.3347,1.0498 1.7621,1.7621 2.0271,3.3785 3.259,7.1937 5.2861,10.5722 1.0896,1.816 2.577,3.392 3.5241,5.2862 0.2627,0.5253 -0.2627,1.2367 0,1.762 0.3715,0.743 1.3013,1.0709 1.7621,1.7621 0.7285,1.0927 1.0335,2.4313 1.762,3.5241 0.4608,0.6911 1.3013,1.0709 1.7621,1.762 0.2188,0.3282 3.4111,6.9353 3.524,7.0482 0.9287,0.9287 2.5955,0.8333 3.5241,1.762 0.4154,0.4153 -0.1424,1.1923 0,1.7621 0.4505,1.8019 0.9314,3.6248 1.7621,5.2861 0.3715,0.7429 1.1747,1.1747 1.762,1.7621 1.1747,1.1746 2.6026,2.1418 3.5241,3.524 0.3258,0.4887 -0.2627,1.2367 0,1.7621 0.3715,0.7429 1.3906,1.0191 1.7621,1.762 4.2586,8.5173 0.418,2.0901 1.762,8.8103 0.3643,1.8212 1.3116,3.4842 1.7621,5.2861 0.1424,0.5698 -0.1858,1.2048 0,1.762 0.4153,1.246 1.3467,2.2782 1.762,3.5241 0.3179,0.9537 0,6.4479 0,7.0482 0,1.2167 0.2679,6.5125 0,7.0482 -0.2339,0.4678 -4.8183,5.0522 -5.2861,5.2861 -2.9368,1.1747 -5.8735,2.3494 -8.8103,3.5241 -1.1747,0 -2.4096,-0.3715 -3.5241,0 -2.4919,0.8307 -4.6093,2.5486 -7.0481,3.5241 -0.5454,0.2181 -1.1747,0 -1.7621,0 -1.1747,0.5874 -2.4313,1.0335 -3.5241,1.7621 -0.6911,0.4607 -0.974,1.4993 -1.762,1.762 -1.1144,0.3715 -2.4334,-0.4363 -3.5241,0 -1.9663,0.7865 -3.392,2.577 -5.2861,3.5241 -0.5254,0.2627 -1.1827,-0.097 -1.7621,0 -2.9541,0.4923 -5.9047,1.0357 -8.8102,1.762 -1.8019,0.4505 -3.4649,1.3978 -5.2862,1.7621 -5.7845,3.6551 -13.2018,0.8791 -19.3824,1.762 -1.8387,0.2627 -3.4649,1.3978 -5.2862,1.7621 -4.0725,0.8145 -8.2065,1.3034 -12.3343,1.762 -1.1675,0.1297 -2.3946,-0.3227 -3.5241,0 -3.0413,0.8689 -5.7417,2.757 -8.8102,3.5241 -1.7095,0.4274 -3.5583,-0.3456 -5.2862,0 -1.2878,0.2576 -2.2286,1.5461 -3.524,1.7621 -2.3175,0.3862 -4.7224,-0.3323 -7.0482,0 -1.8387,0.2626 -3.4475,1.4993 -5.2862,1.762 -2.3257,0.3323 -4.6987,0 -7.0481,0 -1.7621,0 -3.5241,0 -5.2862,0 -14.6837,0 -29.3674,0 -44.0511,0 -4.6988,0 -9.3976,0 -14.0964,0 -1.762,0 -3.5348,-0.1946 -5.2861,0 -3.5509,0.3945 -7.0214,1.3675 -10.5723,1.762 -1.7512,0.1946 -3.5241,0 -5.2861,0 -2.9368,0 -5.8735,0 -8.8102,0 -8.8103,0 -17.6205,0 -26.4307,0 -2.9368,0 -5.8786,-0.1724 -8.8102,0 -7.0605,0.4154 -14.0776,1.4794 -21.1446,1.7621 -7.6294,0.3052 -15.271,0 -22.9066,0 -12.3343,0 -24.6686,0 -37.0029,0 -38.765,0 -77.53,0 -116.295,0 -20.5572,0 -41.1144,0 -61.6716,0 -9.3976,0 -18.7951,0 -28.1927,0 -6.4608,0 -12.9253,-0.2153 -19.3825,0 -11.1689,0.3723 -22.3104,1.3769 -33.4789,1.762 -5.87,0.2024 -11.76086,-0.4041 -17.62043,0 -9.18134,0.6332 -36.34985,3.9191 -49.33726,5.2862 -5.87035,0.6179 -11.74697,1.1747 -17.62045,1.762 -9.98493,1.1747 -19.96248,2.4138 -29.95477,3.5241 -5.86668,0.6519 -11.75972,1.0588 -17.62046,1.762 -8.82488,1.059 -17.57318,2.786 -26.43067,3.5241 -10.53576,0.878 -21.15371,-0.4401 -31.71682,0 -8.82213,0.3676 -17.60923,1.3785 -26.43068,1.7621 -6.9277,0.3012 -30.72284,-0.4518 -35.2409,0 -4.81936,0.4819 -9.27958,3.017 -14.09636,3.5241 -6.42534,0.6763 -12.92167,0 -19.3825,0 -6.46083,0 -12.92167,0 -19.3825,0 -12.92166,0 -25.84333,0 -38.76499,0 -6.46084,0 -12.95373,-0.6429 -19.3825,0 -1.84814,0.1848 -3.438,1.5772 -5.28614,1.762 -4.09103,0.4091 -8.22287,0 -12.33431,0 -9.98493,0 -19.96985,0 -29.95477,0 -4.11144,0 -8.22288,0 -12.33432,0 -2.34939,0 -4.70843,-0.2127 -7.04818,0 -4.13612,0.376 -8.19819,1.3861 -12.33432,1.7621 -2.33974,0.2127 -4.7057,-0.1802 -7.04818,0 -5.303,0.4079 -10.55325,1.3831 -15.8584,1.762 -5.85856,0.4185 -11.74697,0 -17.62046,0 -14.68371,0 -29.36742,0 -44.05113,0 -14.09636,0 -28.19272,0 -42.28908,0 -5.28614,0 -10.57227,0 -15.85841,0 -1.76205,0 -3.53133,-0.1595 -5.28614,0 -4.7159,0.4287 -9.37736,1.3688 -14.09636,1.7621 -2.34128,0.1951 -4.69878,0 -7.04818,0 -6.46083,0 -12.92166,0 -19.3825,0 -2.34939,0 -4.70843,-0.2127 -7.04818,0 -4.13612,0.376 -8.20174,1.3487 -12.33431,1.762 -1.7533,0.1753 -3.52409,0 -5.28614,0 -3.52409,0 -7.04818,0 -10.57227,0 -7.04818,0 -14.09636,0 -21.14454,0 -5.87349,0 -11.74697,0 -17.62046,0 -1.76118,0 -7.30273,0.3769 -8.81022,0 -1.8019,-0.4505 -3.48423,-1.3116 -5.28614,-1.762 -2.4069,-0.6018 -8.51737,0.6849 -10.57227,0 -0.78801,-0.2627 -1.0191,-1.3906 -1.76204,-1.7621 -0.52534,-0.2627 -1.1747,0 -1.76205,0 -1.1747,0 -2.40967,0.3715 -3.52409,0 -0.78801,-0.2627 -1.0191,-1.3906 -1.76204,-1.762 -0.52535,-0.2627 -1.18611,0.1152 -1.76205,0 -2.37467,-0.475 -4.67351,-1.2871 -7.04818,-1.7621 -2.25903,-0.4518 -4.78915,0.4518 -7.04818,0 -1.28785,-0.2575 -2.23625,-1.5045 -3.52409,-1.762 -1.72783,-0.3456 -3.5767,0.4273 -5.28614,0 -0.80583,-0.2015 -0.97403,-1.4994 -1.76204,-1.7621 -1.63238,-0.5441 -7.12182,0.5628 -8.81023,0 -1.24595,-0.4153 -2.27814,-1.3467 -3.52409,-1.762 -0.55721,-0.1858 -1.1747,0 -1.76205,0 -1.88358,0 -10.42614,0.3816 -12.33431,0 -1.82129,-0.3643 -3.46485,-1.3978 -5.28614,-1.7621 -1.15188,-0.2303 -2.38446,0.2849 -3.52409,0 -1.27414,-0.3185 -2.27813,-1.3467 -3.52409,-1.762 -0.55721,-0.1857 -1.1747,0 -1.76204,0 -3.52409,0 -7.04818,0 -10.57228,0 -4.11143,0 -8.22287,0 -12.33431,0 -0.58735,0 -1.1747,0 -1.76205,0 -0.58735,0 -1.34672,0.4153 -1.76204,0 -0.41532,-0.4153 0,-1.1747 0,-1.7621 0,-0.5873 0,-1.1746 0,-1.762 0,-1.1747 0,-2.3494 0,-3.5241 0,-0.5873 -0.58735,-1.762 0,-1.762 0.58735,0 0,2.3494 0,1.762 0,-1.1747 0,-2.3494 0,-3.5241 0,-1.1747 0,-4.6988 0,-3.5241 0,1.1747 -0.52534,4.5748 0,3.5241 1.66127,-3.3225 2.34939,-7.0482 3.52409,-10.5722 z"
     id="path4604"
     inkscape:connector-curvature="0"
     inkscape:export-xdpi="2"
     inkscape:export-ydpi="2" />
  <path
     style="fill:#7a7a7a;stroke:#000000;stroke-width:1px;stroke-linecap:butt;stroke-linejoin:miter;stroke-opacity:1;fill-opacity:1"
     d="m 680.14946,1478.3559 c 2.93674,1.7621 5.96062,3.3864 8.81023,5.2862 0.69113,0.4607 1.04978,1.3347 1.76204,1.762 3.37857,2.0272 7.29395,3.1006 10.57227,5.2862 5.07535,1.0956 6.8394,6.1439 10.57227,8.8102 17.09544,12.211 1.93164,0.9658 14.09637,7.0482 1.89414,0.947 3.52409,2.3494 5.28613,3.5241 3.52409,2.3494 7.18393,4.5069 10.57227,7.0481 1.32902,0.9968 2.17226,2.5585 3.52409,3.5241 2.78688,1.9907 6.02335,3.2955 8.81023,5.2862 1.35183,0.9656 2.22685,2.4863 3.52409,3.5241 1.65366,1.3229 3.59196,2.2534 5.28614,3.5241 3.00869,2.2565 5.80153,4.7916 8.81022,7.0481 1.69417,1.2707 3.61451,2.224 5.28614,3.5241 3.62102,2.8164 6.75537,6.2657 10.57227,8.8102 1.54541,1.0303 3.7111,0.7777 5.28613,1.7621 6.72194,-0.9304 6.75538,6.2656 10.57228,8.8102 1.09277,0.7285 2.49853,0.9416 3.52409,1.7621 1.94585,1.5566 3.2926,3.791 5.28613,5.2861 0.46988,0.3524 1.34673,-0.4153 1.76205,0 0.92868,0.9287 0.83336,2.5954 1.76204,3.5241 0.41532,0.4153 1.23671,-0.2627 1.76205,0 0.74294,0.3715 1.0191,1.3906 1.76204,1.762 0.52534,0.2627 1.34673,-0.4153 1.76205,0 0.41532,0.4154 -0.41532,1.3468 0,1.7621 0.41532,0.4153 1.2367,-0.2627 1.76204,0 2.11446,1.0572 3.17168,4.2289 5.28614,5.2861 0.52534,0.2627 1.2367,-0.2627 1.76204,0 7.33321,3.6666 -1.88369,-0.1216 1.76205,3.5241 0.41532,0.4153 1.2367,-0.2627 1.76204,0 1.56177,0.7809 3.68212,4.2168 5.28614,5.2861 1.09277,0.7286 2.59541,0.8334 3.52409,1.7621 0.41532,0.4153 -0.41532,1.3467 0,1.762 0.41532,0.4154 1.23671,-0.2626 1.76205,0 0.33729,0.1687 6.87953,6.7109 7.04818,7.0482 0.26267,0.5254 -0.41532,1.3467 0,1.7621 0.41531,0.4153 1.34672,-0.4154 1.76204,0 0.92868,0.9286 0.83337,2.5954 1.76205,3.5241 0.41532,0.4153 1.49937,-0.5254 1.76204,0 0.52534,1.0506 -0.37147,2.4096 0,3.524 0.52534,1.5761 2.78115,2.0382 3.52409,3.5241 0.52534,1.0507 -0.83063,2.6935 0,3.5241 0.41532,0.4153 1.49938,-0.5253 1.76205,0 0.52534,1.0507 -0.37147,2.4097 0,3.5241 0.26267,0.788 1.30129,1.0709 1.76204,1.7621 0.72852,1.0927 1.34673,2.2781 1.76205,3.524 0.55721,1.6717 -0.55721,3.6146 0,5.2862 0.26267,0.788 1.39057,1.0191 1.76204,1.762 0.26267,0.5254 -0.26267,1.2367 0,1.7621 0.94707,1.8941 2.57702,3.392 3.52409,5.2861 0.26267,0.5254 -0.3258,1.2734 0,1.7621 0.92151,1.3822 2.60259,2.1418 3.52409,3.524 0.32581,0.4887 -0.3258,1.2734 0,1.7621 0.92151,1.3823 2.3494,2.3494 3.5241,3.5241 0.58734,0.5873 1.0191,1.3906 1.76204,1.762 0.52534,0.2627 1.20484,-0.1857 1.76205,0 1.24595,0.4153 2.27813,1.3468 3.52409,1.7621 0.5572,0.1857 1.17469,0 1.76204,0 2.34939,0 4.69879,0 7.04818,0 5.28614,0 10.57227,0 15.85841,0 4,0 15.3825,0 19.3825,0 2.34939,0 4.7069,0.1951 7.04818,0 4.71899,-0.3933 9.38045,-1.3334 14.09636,-1.7621 1.75481,-0.1595 3.5767,0.4274 5.28614,0 3.06852,-0.7671 5.74169,-2.7569 8.81022,-3.5241 1.70944,-0.4273 3.5767,0.4274 5.28614,0 0.80583,-0.2014 1.09753,-1.2636 1.76204,-1.762 1.69417,-1.2706 3.59197,-2.2535 5.28614,-3.5241 0.66451,-0.4984 1.0191,-1.3906 1.76204,-1.762 0.52534,-0.2627 1.23671,0.2626 1.76205,0 0.74294,-0.3715 0.93141,-1.7621 1.76204,-1.7621 0.83064,0 1.30129,1.0709 1.76205,1.7621 0.72851,1.0927 1.1747,2.3493 1.76204,3.524 0.58735,1.1747 1.34673,2.2782 1.76205,3.5241 0.18574,0.5572 0,1.1747 0,1.7621 0,1.762 0,3.5241 0,5.2861 0,0.5874 -0.14245,1.1923 0,1.7621 0.45048,1.8019 1.39779,3.4648 1.76204,5.2861 0.23038,1.1519 -0.2849,2.3845 0,3.5241 0.31854,1.2741 1.54614,2.2286 1.76205,3.5241 0.57936,3.4761 0,7.0482 0,10.5723 0,1.762 -0.34557,3.5583 0,5.2861 0.25757,1.2878 1.50448,2.2362 1.76205,3.5241 0.34556,1.7278 0,3.5241 0,5.2861 0,1.1747 0.2849,2.3845 0,3.5241 -0.45048,1.8019 -1.31157,3.4842 -1.76205,5.2861 -0.14245,0.5699 0.18574,1.2049 0,1.7621 -0.41532,1.2459 -1.34673,2.2781 -1.76205,3.5241 -0.18573,0.5572 0.18574,1.2048 0,1.762 -0.41531,1.246 -1.34672,2.2782 -1.76204,3.5241 -0.18574,0.5572 0.41532,1.3467 0,1.7621 -0.41532,0.4153 -1.23671,-0.2627 -1.76205,0 -2.11445,1.0572 -3.17168,4.2289 -5.28613,5.2861 -0.52534,0.2627 -1.23671,-0.2627 -1.76205,0 -0.74294,0.3715 -1.0191,1.3906 -1.76204,1.762 -0.52534,0.2627 -1.23671,-0.2626 -1.76205,0 -0.74294,0.3715 -0.99082,1.4536 -1.76204,1.7621 -10.22134,4.0885 -3.64007,0.7717 -10.57227,1.762 -2.9648,0.4236 -5.84543,1.3385 -8.81023,1.7621 -1.16289,0.1661 -2.38447,-0.2849 -3.52409,0 -3.60381,0.9009 -6.94601,2.7182 -10.57227,3.5241 -3.44017,0.7644 -7.06974,-0.3892 -10.57227,0 -3.55085,0.3945 -7.02143,1.3675 -10.57227,1.762 -1.75127,0.1946 -3.5241,0 -5.28614,0 -2.93674,0 -5.87348,0 -8.81023,0 -10.57227,0 -21.14454,0 -31.71681,0 -16.44576,0 -32.89151,0 -49.33727,0 -2.34939,0 -4.69878,0 -7.04818,0 -0.58735,0 -1.34673,0.4153 -1.76204,0 -0.41532,-0.4153 0.26267,-1.2367 0,-1.762 -0.74295,-1.4859 -2.60259,-2.1419 -3.52409,-3.5241 -0.72852,-1.0928 -1.03353,-2.4313 -1.76205,-3.5241 -1.38226,-2.0734 -3.79099,-3.2926 -5.28613,-5.2862 -0.78802,-1.0506 -1.03353,-2.4313 -1.76205,-3.524 -1.62901,-2.4436 -3.65712,-4.6047 -5.28614,-7.0482 -8.19911,-12.2987 7.81882,8.663 -5.28613,-8.8103 -2.34939,-2.9367 -4.69879,-5.8734 -7.04818,-8.8102 -0.58735,-1.1747 -0.99868,-2.4554 -1.76205,-3.5241 -6.85281,-9.5939 -5.81697,-6.1708 -10.57227,-14.0963 -0.67571,-1.1262 -1.1747,-2.3494 -1.76204,-3.5241 -1.76205,-2.9368 -3.471,-5.906 -5.28614,-8.8102 -1.12239,-1.7959 -2.47341,-3.4475 -3.52409,-5.2862 -1.30321,-2.2806 -2.22088,-4.7675 -3.52409,-7.0482 -1.78853,-3.1299 -6.91929,-9.9706 -8.81023,-12.3343 -0.51889,-0.6486 -1.30129,-1.0709 -1.76204,-1.762 -0.72852,-1.0928 -0.9416,-2.4986 -1.76205,-3.5241 -1.55668,-1.9459 -3.72945,-3.3403 -5.28613,-5.2862 -0.82045,-1.0255 -1.08633,-2.3979 -1.76205,-3.524 -2.48213,-4.1369 -3.67502,-4.7825 -5.28613,-8.8103 -0.68981,-1.7245 -0.84054,-3.6735 -1.76205,-5.2861 -1.45703,-2.5498 -3.65712,-4.6047 -5.28613,-7.0482 -2.64307,-3.9646 -1.76205,-6.1671 -5.28614,-10.5723 -0.82044,-1.0255 -2.73608,-0.7113 -3.52409,-1.762 -1.11442,-1.4859 -0.80644,-3.6935 -1.76205,-5.2861 -0.85471,-1.4246 -2.60258,-2.1419 -3.52409,-3.5241 -0.3258,-0.4887 0.41532,-1.3468 0,-1.7621 -4.27966,-4.2796 -2.58742,0.524 -5.28613,-3.5241 -0.72852,-1.0927 -1.03353,-2.4313 -1.76205,-3.5241 -0.46075,-0.6911 -1.30129,-1.0709 -1.76204,-1.762 -0.72852,-1.0928 -0.83337,-2.5954 -1.76205,-3.5241 -0.41532,-0.4153 -1.34673,0.4153 -1.76204,0 -0.92868,-0.9287 -0.83337,-2.5954 -1.76205,-3.5241 -0.41532,-0.4153 -1.49937,0.5254 -1.76204,0 -0.52534,-1.0507 0.37147,-2.4097 0,-3.5241 -1.83331,-5.4999 -1.1747,0.5874 -3.52409,-1.762 -0.41532,-0.4153 0.26267,-1.2367 0,-1.7621 -2.49757,-4.9951 -1.02653,1.4711 -3.52409,-3.5241 -0.26267,-0.5253 0.26267,-1.2367 0,-1.762 -0.37148,-0.7429 -1.39058,-1.0191 -1.76205,-1.762 -0.26267,-0.5254 0.41532,-1.3468 0,-1.7621 -0.41532,-0.4153 -1.34673,0.4153 -1.76205,0 -0.36022,-0.3602 0.34932,-4.5875 0,-5.2861 -0.37147,-0.743 -1.39057,-1.0191 -1.76204,-1.7621 -0.12032,-0.2406 -0.12032,-10.3316 0,-10.5722 0.37147,-0.743 1.39057,-1.0191 1.76204,-1.7621 0.55375,-1.1075 -0.55374,-5.9407 0,-7.0482 0.74295,-1.4859 2.99875,-1.948 3.5241,-3.5241 0.37147,-1.1144 -0.37148,-2.4096 0,-3.524 0.26267,-0.7881 1.39057,-1.0191 1.76204,-1.7621 0.26267,-0.5253 -0.26267,-1.2367 0,-1.762 0.37147,-0.743 1.39057,-1.0191 1.76205,-1.7621 0.26267,-0.5253 0,-1.1747 0,-1.762 0,-0.5874 0,-1.1747 0,-1.7621 0,-3.5241 0,-7.0482 0,-10.5722 0,-0.6471 0.0709,-6.9773 0,-7.0482 -0.41532,-0.4153 -1.34673,0.4153 -1.76205,0 -0.41532,-0.4153 0.41532,-1.3468 0,-1.7621 -0.41532,-0.4153 -1.34673,0.4153 -1.76204,0 -0.41532,-0.4153 0.41531,-1.3467 0,-1.762 -0.41532,-0.4153 -1.34673,0.4153 -1.76205,0 -0.41532,-0.4153 0,-1.1747 0,-1.7621 -2.34939,-1.1747 -4.69879,-2.3494 -7.04818,-3.5241 z"
     id="path4606"
     inkscape:connector-curvature="0" />
  <path
     d="M912 1696q0-16-16-16-59 0-101.5-42.5t-42.5-101.5q0-16-16-16t-16 16q0 73 51.5 124.5t124.5 51.5q16 0 16-16zm-666-288h1300q-266-300-266-832 0-51-24-105t-69-103-121.5-80.5-169.5-31.5-169.5 31.5-121.5 80.5-69 103-24 105q0 532-266 832zm1482 0q0 52-38 90t-90 38h-448q0 106-75 181t-181 75-181-75-75-181h-448q-52 0-90-38t-38-90q50-42 91-88t85-119.5 74.5-158.5 50-206 19.5-260q0-152 117-282.5t307-158.5q-8-19-8-39 0-40 28-68t68-28 68 28 28 68q0 20-8 39 190 28 307 158.5t117 282.5q0 139 19.5 260t50 206 74.5 158.5 85 119.5 91 88z"
     id="path4582"
     style="fill:#000000;fill-opacity:1" />
</svg>
