<?xml version="1.0" encoding="UTF-8" standalone="no"?>
<!-- Created with Inkscape (http://www.inkscape.org/) -->

<svg
   xmlns:dc="http://purl.org/dc/elements/1.1/"
   xmlns:cc="http://creativecommons.org/ns#"
   xmlns:rdf="http://www.w3.org/1999/02/22-rdf-syntax-ns#"
   xmlns:svg="http://www.w3.org/2000/svg"
   xmlns="http://www.w3.org/2000/svg"
   version="1.1"
   width="32"
   height="32"
   viewBox="0 0 32 32"
   id="Layer_1"
   xml:space="preserve"><metadata
     id="metadata31"><rdf:RDF><cc:Work
         rdf:about=""><dc:format>image/svg+xml</dc:format><dc:type
           rdf:resource="http://purl.org/dc/dcmitype/StillImage" /><dc:title></dc:title></cc:Work></rdf:RDF></metadata><defs
     id="defs29" /><style
     id="style3" /><g
     id="g5"><g
       id="g7"><path
         d="M 69.747,15.613 54.333,0.198 38.919,15.613 c -0.781,0.781 -0.781,2.047 0,2.829 0.781,0.782 2.047,0.781 2.828,0 l 0.586,-0.586 v 7.172 2.025 h 2 20 2 v -2.025 -7.172 l 0.586,0.586 c 0.391,0.391 0.902,0.586 1.414,0.586 0.512,0 1.023,-0.195 1.414,-0.586 0.781,-0.782 0.781,-2.048 0,-2.829 z m -5.414,9.44 h -12 v -8 h -4 v 8 h -4 v -9.198 l 10,-10 10,10 v 9.198 z"
         id="path9"
         style="fill:#191919" /><rect
         width="4"
         height="4"
         x="56.333"
         y="17.052999"
         id="rect11"
         style="fill:#191919" /></g><polygon
       points="48.333,1.053 44.333,1.053 44.333,7.37 48.333,3.37 "
       id="polygon13"
       style="fill:#191919" /></g><g
     id="g15"><path
       d="m 15.471,45.093 c -1.201,2.748 -3.824,5.045 -6.367,5.045 -3.105,0 -5.359,-2.27 -6.562,-5.018 -6.991,3.621 -6.11,12.787 -6.11,12.787 0,1.254 0.988,1.436 2.149,1.436 H 9.102 19.609 c 1.162,0 2.154,-0.182 2.154,-1.436 10e-4,0 0.696,-9.193 -6.292,-12.814 z"
       id="path17"
       style="fill:#191919" /><path
       d="m 9.104,48.649 c 3.5,0 6.285,-5.012 6.285,-9.152 0,-4.14 -2.84,-7.497 -6.341,-7.497 -3.503,0 -6.339,3.356 -6.339,7.498 0,4.141 2.892,9.151 6.395,9.151 z"
       id="path19"
       style="fill:#191919" /></g><g
     id="g21"><path
       d="M 30.237288,15.593221 A 13.898305,13.152542 0 1 1 29.725375,12.056459"
       transform="translate(0,0.13559322)"
       id="path3008"
       style="fill:#ffffff;fill-opacity:1;stroke:none" /><path
       d="m 17.992,22.993 c 0,0.945 -0.766,1.711 -1.711,1.711 -0.945,0 -1.711,-0.766 -1.711,-1.711 v -8.555 c 0,-0.944 0.766,-1.711 1.711,-1.711 0.945,0 1.711,0.767 1.711,1.711 v 8.555 z m -1.711,-11.95 c -0.945,0 -1.711,-0.765 -1.711,-1.711 0,-0.943 0.766,-1.711 1.711,-1.711 0.945,0 1.711,0.768 1.711,1.711 0,0.946 -0.765,1.711 -1.711,1.711 z"
       id="path23"
       style="fill:#191919" /><path
       d="m 16.281,2.476 c -7.559,0 -13.688,6.129 -13.688,13.688 0,7.559 6.128,13.688 13.688,13.688 7.559,0 13.688,-6.129 13.688,-13.688 0,-7.559 -6.129,-13.688 -13.688,-13.688 z m 0,25.5 C 9.757,27.976 4.468,22.687 4.468,16.163 4.468,9.639 9.757,4.35 16.281,4.35 c 6.523,0 11.813,5.288 11.813,11.813 0,6.524 -5.289,11.813 -11.813,11.813 z"
       id="path25"
       style="fill:#191919" /></g></svg>