<?xml version="1.0" encoding="UTF-8" standalone="no"?>
<!-- Created with Inkscape (http://www.inkscape.org/) -->

<svg
   xmlns:dc="http://purl.org/dc/elements/1.1/"
   xmlns:cc="http://creativecommons.org/ns#"
   xmlns:rdf="http://www.w3.org/1999/02/22-rdf-syntax-ns#"
   xmlns:svg="http://www.w3.org/2000/svg"
   xmlns="http://www.w3.org/2000/svg"
   version="1.1"
   width="36.162498"
   height="56.6875"
   id="svg2"
   xml:space="preserve"><metadata
     id="metadata8"><rdf:RDF><cc:Work
         rdf:about=""><dc:format>image/svg+xml</dc:format><dc:type
           rdf:resource="http://purl.org/dc/dcmitype/StillImage" /><dc:title></dc:title></cc:Work></rdf:RDF></metadata><defs
     id="defs6"><clipPath
       id="clipPath18"><path
         d="m 0,0 289,0 0,453.547 -289,0 L 0,0 z"
         id="path20" /></clipPath></defs><g
     transform="matrix(1.25,0,0,-1.25,0,56.6875)"
     id="g10"><path
       d="m 36.270391,48.280457 a 17.294491,7.6864405 0 1 1 -34.5889812,0 17.294491,7.6864405 0 1 1 34.5889812,0 z"
       transform="matrix(0.8,0,0,-0.8,-0.76864408,45.35)"
       id="path3023"
       style="color:#000000;fill:#ffffff;fill-opacity:1;fill-rule:nonzero;stroke:none;stroke-width:1;marker:none;visibility:visible;display:inline;overflow:visible;enable-background:accumulate" /><g
       transform="scale(0.1,0.1)"
       id="g12"><g
         id="g14"><g
           clip-path="url(#clipPath18)"
           id="g16"><path
             d="M 114.781,123.879 C 105.746,122.043 96.7031,122.043 87.6914,120.273 73.2188,116.609 60.5469,113.02 46.0664,107.59 33.4219,102.168 22.5234,94.9336 13.4922,84.082 8.10547,80.4883 6.28516,73.2031 6.28516,65.9766 l 0,0 c 0,-7.2461 1.82031,-14.4532 7.20704,-19.9024 C 22.5234,37.043 33.4219,27.9883 46.0664,22.5781 60.5469,17.1562 73.2188,13.5469 87.6914,11.7305 107.543,8.08594 125.66,6.27734 143.707,6.27734 c 0,0 0,0 1.836,0 18.09,0 36.156,1.8086 56.059,5.45316 12.675,1.8164 27.168,5.4257 39.785,12.6562 12.675,3.6016 23.535,12.6563 34.375,21.6875 3.633,5.4492 7.265,12.6563 7.265,19.9024 0,7.2265 -3.632,14.5117 -9.023,18.1054 -9.082,10.8516 -19.942,18.086 -32.617,23.508 -12.617,5.43 -27.11,9.019 -41.582,12.683 -7.207,1.77 -16.309,1.77 -25.332,3.606"
             id="path22"
             style="fill:#ffffff;fill-opacity:1;fill-rule:nonzero;stroke:none" /><path
             d="M 86.4844,126.438 C 86.1484,126.355 43.8633,113.477 43.8633,113.477 28.8438,107.043 17.7422,99.0039 8.66797,88.0977 L 10,89.3086 C 3.46094,84.9336 0,76.8633 0,65.9766 0,55.9062 3.03125,47.7266 9.02344,41.6602 20.875,29.8164 32.1758,21.6914 43.5977,16.8086 60.2109,10.5859 73.082,7.22656 86.9102,5.49609 106.918,1.81641 125.609,0 143.707,0 l 1.836,0 c 18.324,0 36.488,1.75781 57.191,5.55859 16.172,2.30079 30.332,6.81251 41.778,13.37891 12.5,3.3594 24.004,12.9258 35.117,22.1836 l 0.703,0.5781 0.645,0.8906 c 5.527,8.2891 8.32,16.1485 8.32,23.3868 0,9.375 -4.629,18.5351 -11.797,23.332 l 1.309,-1.1953 c -9.161,10.9414 -20.274,18.9647 -34.942,25.2537 -12.715,5.449 -27.226,9.133 -41.25,12.668 -1.328,0.344 -14.531,2.293 -14.531,2.293 l -12.344,1.711 -2.519,-12.324 13.554,-1.863 11.543,-1.672 c 14.766,-3.739 28.789,-7.293 40.586,-12.364 12.813,-5.4762 22.442,-12.4019 30.274,-21.7574 l 0.586,-0.6953 0.742,-0.5078 c 3.672,-2.4493 6.23,-7.75 6.23,-12.8789 0,-4.6485 -2.148,-10.3321 -6.211,-16.4258 -9.511,-7.586 -19.511,-15.8906 -30.859,-19.1211 -11.465,-6.3594 -24.102,-10.3633 -38.965,-12.4688 -20.176,-3.7031 -37.617,-5.4023 -55.16,-5.4023 l -1.836,0 c -17.324,0 -35.285,1.75 -54.8828,5.3516 -13.164,1.6523 -25.1797,4.7929 -40.5508,10.5586 -9.6601,4.1289 -19.664,11.3867 -30.3476,22.0507 -3.5469,3.5899 -5.3633,8.8047 -5.3633,15.4571 0,6.3086 1.6133,11.0156 4.4258,12.8789 l 0.7461,0.5078 0.582,0.7031 c 7.7617,9.3203 17.3672,16.2344 30.2227,21.7496 0.082,0 40.6875,12.375 40.6875,12.375 -0.336,-0.082 12.3394,1.582 12.3394,1.582 l 14.465,1.942 -2.5,12.324 -27.0466,-3.601"
             id="path24"
             style="fill:#231f20;fill-opacity:1;fill-rule:nonzero;stroke:none" /><path
             d="m 174.473,428.668 -59.692,0 -66.8865,-43.402 34.3321,-48.883 32.5544,21.726 0,-292.1324 59.692,0 0,292.1324 32.597,-21.726 32.539,48.883 -65.136,43.402"
             id="path26"
             style="fill:#0026ff;fill-opacity:1;fill-rule:nonzero;stroke:none" /><path
             d="m 173.34,424.898 c 1.758,-1.164 55.449,-36.953 61.035,-40.683 -3.398,-5.113 -24.941,-37.481 -28.34,-42.61 -5.137,3.418 -35.332,23.547 -35.332,23.547 0,0 0,-288.0739 0,-295.4059 -6.172,0 -45.992,0 -52.152,0 0,7.332 0,295.4139 0,295.4139 0,0 -30.3322,-20.242 -35.3557,-23.594 -3.4648,4.934 -26.3047,37.442 -29.9687,42.664 5.8398,3.79 60.9374,39.555 62.6684,40.668 2.109,0 55.296,0 57.445,0 z m -59.684,7.54 -71.0935,-46.145 38.6992,-55.086 c 0,0 21.8673,14.598 29.7503,19.863 0,-13.418 0,-288.863 0,-288.863 l 67.23,0 c 0,0 0,275.453 0,288.863 7.891,-5.254 29.863,-19.914 29.863,-19.914 l 36.719,55.156 -69.219,46.126 -61.949,0"
             id="path28"
             style="fill:#231f20;fill-opacity:1;fill-rule:nonzero;stroke:none" /><path
             d="m 191.074,319.301 19.063,-14.805 4.629,5.957 c 0,0 -9.727,7.539 -13.516,10.5 3.457,5.203 46.523,69.785 50.234,75.371 4.102,-2.726 13.145,-8.769 13.145,-8.769 l 4.199,6.265 -19.414,12.953 -58.34,-87.472"
             id="path30"
             style="fill:#231f20;fill-opacity:1;fill-rule:nonzero;stroke:none" /><path
             d="m 210.371,447.227 32.578,-21.688 4.18,6.262 -32.598,21.691 -4.16,-6.265"
             id="path32"
             style="fill:#231f20;fill-opacity:1;fill-rule:nonzero;stroke:none" /><path
             d="m 55.6797,437.309 23.4883,-32.559 6.1172,4.414 -23.4922,32.559 -6.1133,-4.414"
             id="path34"
             style="fill:#231f20;fill-opacity:1;fill-rule:nonzero;stroke:none" /><path
             d="m 40.4297,431.855 4.0156,-6.371 34.3633,21.688 -4.0274,6.375 -34.3515,-21.692"
             id="path36"
             style="fill:#231f20;fill-opacity:1;fill-rule:nonzero;stroke:none" /><path
             d="m 18.6211,393.82 4.1875,-6.265 c 0,0 9.1289,6.097 13.1914,8.797 3.75,-5.454 48.3516,-70.196 51.9609,-75.43 -3.8593,-2.988 -13.4804,-10.469 -13.4804,-10.469 l 4.625,-5.945 19.0898,14.824 -60.2031,87.41 -19.3711,-12.922"
             id="path38"
             style="fill:#231f20;fill-opacity:1;fill-rule:nonzero;stroke:none" /><path
             d="m 203.926,409.047 6.289,-4.18 21.699,32.559 -6.289,4.179 -21.699,-32.558"
             id="path40"
             style="fill:#231f20;fill-opacity:1;fill-rule:nonzero;stroke:none" /><path
             d="m 115.609,326.168 59.6445,0 0,7.53906 -59.6445,0 0,-7.53906 z"
             id="path42"
             style="fill:#231f20;fill-opacity:1;fill-rule:nonzero;stroke:none" /><path
             d="m 114.781,207.812 59.6914,0 0,7.54297 -59.6914,0 0,-7.54297 z"
             id="path44"
             style="fill:#231f20;fill-opacity:1;fill-rule:nonzero;stroke:none" /><path
             d="m 94.8984,267.523 99.4766,0 0,7.53906 -99.4766,0 0,-7.53906 z"
             id="path46"
             style="fill:#231f20;fill-opacity:1;fill-rule:nonzero;stroke:none" /></g></g></g></g></svg>
