<?xml version="1.0" encoding="UTF-8" standalone="no"?>
<!-- Created with Inkscape (http://www.inkscape.org/) -->

<svg
   xmlns:dc="http://purl.org/dc/elements/1.1/"
   xmlns:cc="http://creativecommons.org/ns#"
   xmlns:rdf="http://www.w3.org/1999/02/22-rdf-syntax-ns#"
   xmlns:svg="http://www.w3.org/2000/svg"
   xmlns="http://www.w3.org/2000/svg"
   version="1.1"
   width="32.700001"
   height="56.6875"
   id="svg2"
   xml:space="preserve"><metadata
     id="metadata8"><rdf:RDF><cc:Work
         rdf:about=""><dc:format>image/svg+xml</dc:format><dc:type
           rdf:resource="http://purl.org/dc/dcmitype/StillImage" /><dc:title></dc:title></cc:Work></rdf:RDF></metadata><defs
     id="defs6"><clipPath
       id="clipPath18"><path
         d="M 0,453.547 0,0 l 261.621,0 0,453.547 -261.621,0 z"
         id="path20" /></clipPath></defs><g
     transform="matrix(1.25,0,0,-1.25,0,56.6875)"
     id="g10"><g
       transform="scale(0.1,0.1)"
       id="g12"><g
         id="g14"><g
           clip-path="url(#clipPath18)"
           id="g16"><path
             d="m 37.2695,230.586 -22.625,-3.723 -9.81247,36.899 14.49997,5.652"
             id="path22"
             style="fill:#0026ff;fill-opacity:1;fill-rule:nonzero;stroke:none" /><path
             d="m 0,266.223 11.6797,-43.938 26.25,4.317 -1.3203,7.968 c 0,0 -13.8946,-2.285 -19.0078,-3.125 -1.375,5.188 -6.5743,24.746 -7.93363,29.864 3.96483,1.55 11.13283,4.343 11.13283,4.343 L 17.8594,273.176 0,266.223"
             id="path24"
             style="fill:#231f20;fill-opacity:1;fill-rule:nonzero;stroke:none" /><path
             d="m 224.363,230.586 22.617,-3.723 9.805,36.899 -14.473,5.652"
             id="path26"
             style="fill:#0026ff;fill-opacity:1;fill-rule:nonzero;stroke:none" /><path
             d="m 240.852,265.652 c 0,0 7.136,-2.793 11.101,-4.343 -1.355,-5.118 -6.543,-24.676 -7.937,-29.864 -5.102,0.84 -18.989,3.125 -18.989,3.125 l -1.316,-7.968 26.238,-4.317 11.672,43.926 -17.832,6.965 -2.937,-7.524"
             id="path28"
             style="fill:#231f20;fill-opacity:1;fill-rule:nonzero;stroke:none" /><path
             d="M 135.566,439.625 184.211,418 l 0,-31.633 -4.836,0 0,-11.16 -21.57,-42.148 89.09,-53.762 -26.204,-56.738 -53.457,28.828 11.789,-215.0003 9.93,0 0,-32.34373 -116.246,0 0,32.34373 9.9219,0 11.7773,215.0003 -53.4492,-28.828 -26.2148,56.738 89.1128,53.762 -21.5777,42.148 0,11.16 -4.832,0 0,31.633 48.6167,21.625"
             id="path30"
             style="fill:#0026ff;fill-opacity:1;fill-rule:nonzero;stroke:none" /><path
             d="m 133.926,435.938 c 0,0 41.914,-18.637 46.238,-20.567 0,-3.797 0,-19.402 0,-24.961 -0.215,0 -4.832,0 -4.832,0 0,0 0,-12.605 0,-14.226 -0.859,-1.661 -22.844,-44.641 -22.844,-44.641 0,0 83.45,-50.359 89.211,-53.84 -2.488,-5.398 -19.929,-43.199 -22.871,-49.551 -6.531,3.528 -56.008,30.207 -56.008,30.207 L 175.195,32.3438 c 0,0 6.875,0 9.715,0 0,-5.3008 0,-18.9532 0,-24.26958 -7.254,0 -100.9061,0 -108.1678,0 0,5.31638 0,18.96878 0,24.26958 2.8398,0 9.707,0 9.707,0 L 98.8398,258.359 c 0,0 -49.4843,-26.679 -56.0156,-30.207 -2.9375,6.352 -20.4023,44.153 -22.8984,49.551 5.7695,3.481 89.2342,53.84 89.2342,53.84 0,0 -21.9959,42.98 -22.8475,44.641 0,1.621 0,14.226 0,14.226 0,0 -4.6133,0 -4.8281,0 0,5.559 0,21.164 0,24.961 4.3398,1.93 46.2186,20.567 46.2186,20.567 l -3.289,7.374 -51.0078,-22.691 0,-38.285 c 0,0 4.6172,0 4.8243,0 0,-3.293 0,-8.098 0,-8.098 0,0 17.3984,-33.996 20.3125,-39.668 C 92.5469,330.957 9.55469,280.891 9.55469,280.891 L 39.0938,216.965 c 0,0 41.0351,22.129 50.8828,27.437 C 89.2578,231.199 79.1914,47.5391 78.7969,40.4219 c -2.8907,0 -10.1289,0 -10.1289,0 l 0,-40.4219 124.32,0 0,40.4219 c 0,0 -7.246,0 -10.144,0 -0.395,7.1172 -10.449,190.7771 -11.184,203.9801 9.871,-5.308 50.906,-27.437 50.906,-27.437 l 29.512,63.926 c 0,0 -82.969,50.066 -88.973,53.679 2.911,5.672 20.301,39.668 20.301,39.668 0,0 0,4.805 0,8.098 0.215,0 4.836,0 4.836,0 l 0,38.285 -51.035,22.691 -3.281,-7.374"
             id="path32"
             style="fill:#231f20;fill-opacity:1;fill-rule:nonzero;stroke:none" /><path
             d="m 126.062,439.625 9.85547,0 0,9.88281 -9.85547,0 0,-9.88281 z"
             id="path34"
             style="fill:#0026ff;fill-opacity:1;fill-rule:nonzero;stroke:none" /><path
             d="m 131.887,445.469 c 0,-0.875 0,-0.938 0,-1.805 -0.871,0 -0.918,0 -1.789,0 0,0.867 0,0.93 0,1.805 0.871,0 0.918,0 1.789,0 z m -9.867,8.078 0,-17.965 17.941,0 0,17.965 -17.941,0"
             id="path36"
             style="fill:#231f20;fill-opacity:1;fill-rule:nonzero;stroke:none" /><path
             d="M 49.7305,227.305 30.8906,289.023"
             id="path38"
             style="fill:#0026ff;fill-opacity:1;fill-rule:nonzero;stroke:none" /><path
             d="m 27.0273,287.844 18.8399,-61.711 7.7266,2.351 -18.8438,61.711 -7.7227,-2.351"
             id="path40"
             style="fill:#231f20;fill-opacity:1;fill-rule:nonzero;stroke:none" /><path
             d="m 211.914,227.305 18.816,61.718"
             id="path42"
             style="fill:#0026ff;fill-opacity:1;fill-rule:nonzero;stroke:none" /><path
             d="m 208.047,228.484 7.742,-2.351 18.82,61.711 -7.746,2.351 -18.816,-61.711"
             id="path44"
             style="fill:#231f20;fill-opacity:1;fill-rule:nonzero;stroke:none" /><path
             d="m 82.2773,386.367 97.0977,0"
             id="path46"
             style="fill:#0026ff;fill-opacity:1;fill-rule:nonzero;stroke:none" /><path
             d="m 82.2773,383.84 97.0977,0 0,5.06641 -97.0977,0 0,-5.06641 z"
             id="path48"
             style="fill:#231f20;fill-opacity:1;fill-rule:nonzero;stroke:none" /><path
             d="m 179.023,36.3867 -96.3941,0"
             id="path50"
             style="fill:#0026ff;fill-opacity:1;fill-rule:nonzero;stroke:none" /><path
             d="m 82.6289,33.8555 96.3945,0 0,5.05078 -96.3945,0 0,-5.05078 z"
             id="path52"
             style="fill:#231f20;fill-opacity:1;fill-rule:nonzero;stroke:none" /></g></g></g></g></svg>
